<?xml version="1.0" encoding="UTF-8"?>
<svg width="32px" height="32px" viewBox="0 0 32 32" version="1.1" xmlns="http://www.w3.org/2000/svg" xmlns:xlink="http://www.w3.org/1999/xlink">
    <!-- Generator: Sketch 56.3 (81716) - https://sketch.com -->
    <title>safari-pinned-tab</title>
    <desc>Created with Sketch.</desc>
    <g id="safari-pinned-tab" stroke="none" stroke-width="1" fill="none" fill-rule="evenodd">
        <g id="favicon">
            <polygon id="Polygon" fill="#053457" fill-rule="evenodd" points="16 0 27.3137085 4.6862915 32 16 27.3137085 27.3137085 16 32 4.6862915 27.3137085 0 16 4.6862915 4.6862915"></polygon>
            <path d="M24.448,21.15 C25.9139765,21.425 26.56,21.775 26.56,22.4 L20.7706353,22.4 C20.7706353,21.725 20.8451765,21.425 22.7087059,21.125 L22.7087059,14.575 C22.7087059,12.425 22.2863059,10.975 20.0003765,10.975 C19.0313412,10.975 17.6647529,11.275 16.5466353,11.725 C16.7702588,12.475 16.8944941,13.45 16.8944941,14.6 L16.8944941,21.15 C18.3604706,21.425 19.0313412,21.775 19.0313412,22.4 L13.1922824,22.4 C13.1922824,21.725 13.2668235,21.425 15.1552,21.125 L15.1552,14.575 C15.1552,12.5 14.7328,10.975 12.5214118,10.975 C11.5523765,10.975 10.3348706,11.25 9.29129412,11.675 L9.29129412,21.15 C10.7572706,21.425 11.4281412,21.775 11.4281412,22.4 L5.44,22.4 C5.44,21.725 5.53938824,21.425 7.552,21.125 L7.552,11.075 L5.44,10.925 C5.44,10.05 6.58296471,9.725 8.34710588,9.725 C8.91858824,9.725 9.14221176,10 9.16705882,10.675 C9.19190588,10.85 9.16705882,11.075 9.14221176,11.35 L9.2416,11.35 C10.2603294,10.25 11.9002353,9.6 13.6146824,9.6 C15.0061176,9.6 15.9006118,10.2 16.4224,11.4 C17.5156706,10.275 19.3543529,9.6 21.1184941,9.6 C23.5286588,9.6 24.448,11.275 24.448,14.6 L24.448,21.15 Z" id="m" fill="#FFEBDD" fill-rule="nonzero"></path>
        </g>
    </g>
</svg>